<?xml version="1.0" standalone="no"?>
<!DOCTYPE svg PUBLIC "-//W3C//DTD SVG 20010904//EN"
 "http://www.w3.org/TR/2001/REC-SVG-20010904/DTD/svg10.dtd">
<svg version="1.0" xmlns="http://www.w3.org/2000/svg"
 width="128.000000pt" height="128.000000pt" viewBox="0 0 128.000000 128.000000"
 preserveAspectRatio="xMidYMid meet">
<metadata>
Created by potrace 1.14, written by Peter Selinger 2001-2017
</metadata>
<g transform="translate(0.000000,128.000000) scale(0.100000,-0.100000)"
fill="#000000" stroke="none">
<path d="M22 1204 c9 -155 11 -157 426 -440 78 -54 142 -100 142 -103 0 -17
-76 -55 -120 -59 -77 -7 -178 48 -164 90 4 14 3 18 -6 13 -8 -5 -8 -1 1 13 10
17 10 23 -4 37 -20 20 -23 32 -4 16 11 -8 13 -6 12 10 -1 12 -10 26 -21 32
-10 6 -68 45 -129 87 -60 42 -116 80 -124 85 -12 7 -13 -5 -9 -72 9 -129 36
-167 208 -286 52 -36 103 -72 112 -79 12 -9 19 -33 23 -78 4 -36 8 -84 10
-108 l5 -43 -31 21 c-19 14 -27 26 -21 33 5 7 8 35 7 62 -3 68 -5 83 -11 68
-3 -7 -51 21 -124 72 -176 124 -163 121 -157 33 6 -79 17 -115 48 -159 11 -16
111 -101 222 -189 111 -89 211 -169 222 -178 11 -9 39 -32 62 -50 l41 -32 254
201 c139 110 264 213 276 228 41 46 63 107 65 179 1 37 -1 67 -5 67 -4 0 -64
-40 -134 -88 -70 -48 -133 -86 -140 -83 -13 5 -13 -11 0 -33 6 -10 5 -12 -2
-7 -7 4 -12 1 -12 -8 0 -10 6 -13 18 -10 10 4 13 3 6 -3 -6 -4 -10 -22 -8 -39
2 -34 -1 -40 -34 -69 l-23 -19 6 92 c4 51 8 100 9 110 1 15 67 66 215 167 54
36 107 108 117 155 9 47 14 132 8 141 -2 4 -63 -33 -135 -83 -103 -71 -133
-88 -140 -77 -6 10 -8 6 -5 -11 3 -14 5 -25 6 -25 1 0 3 -10 4 -22 2 -19 0
-21 -13 -10 -12 9 -11 5 3 -17 15 -23 16 -28 3 -23 -15 6 -17 -8 -4 -29 8 -13
-46 -58 -88 -74 -43 -16 -99 -11 -145 13 -24 13 -45 28 -47 33 -2 6 97 80 219
165 256 177 289 204 318 264 21 44 37 185 21 185 -5 0 -51 -30 -102 -66 -52
-37 -108 -73 -125 -82 -25 -12 -31 -20 -30 -43 0 -16 4 -29 7 -29 10 0 2 -84
-8 -87 -5 -2 -77 -50 -160 -108 -83 -58 -156 -105 -163 -105 -12 0 -9 17 14
75 15 37 7 105 -25 210 -25 87 -28 85 -54 -30 -25 -111 -26 -153 -4 -207 19
-50 19 -50 0 -45 -10 2 -89 54 -174 113 -106 75 -155 114 -154 126 1 10 5 18
9 18 3 0 6 9 5 20 -1 11 -5 20 -10 20 -5 0 -6 -7 -3 -16 3 -8 2 -13 -3 -10
-11 7 -8 73 4 84 4 4 5 2 1 -5 -3 -6 -2 -14 3 -17 5 -4 8 2 6 11 -2 10 -4 23
-4 28 -1 6 -5 4 -10 -4 -7 -10 -20 -5 -62 26 -30 21 -85 61 -123 87 l-69 49 5
-79z m994 -118 c0 -14 -3 -23 -7 -20 -6 3 -6 22 0 42 3 10 7 -2 7 -22z m-413
-634 c13 -12 17 -31 17 -80 0 -58 -2 -63 -16 -51 -11 9 -15 25 -12 50 2 21 1
37 -2 36 -3 -1 -16 6 -28 15 -22 15 -23 17 -5 27 10 6 12 11 6 11 -7 0 -13 4
-13 10 0 12 29 2 53 -18z m116 13 c5 2 8 -6 7 -18 -1 -12 -11 -26 -23 -32 -18
-8 -21 -16 -18 -47 4 -35 -8 -58 -22 -44 -4 3 -6 31 -5 61 0 45 5 59 24 75 13
10 25 14 26 9 2 -5 7 -7 11 -4z m-389 -35 c0 -5 -2 -10 -4 -10 -3 0 -8 5 -11
10 -3 6 -1 10 4 10 6 0 11 -4 11 -10z"/>
<path d="M985 1011 c-3 -5 -2 -12 3 -15 5 -3 9 1 9 9 0 17 -3 19 -12 6z"/>
<path d="M939 428 c-6 -20 -5 -38 1 -48 5 -7 7 0 6 19 -1 26 -4 39 -7 29z"/>
</g>
</svg>
