{
	"asset":{
		"generator":"Khronos glTF Blender I/O v4.0.44",
		"version":"2.0"
	},
	"extensionsUsed":[
		"EXT_texture_webp"
	],
	"extensionsRequired":[
		"EXT_texture_webp"
	],
	"scene":0,
	"scenes":[
		{
			"name":"Scene",
			"nodes":[
				0
			]
		}
	],
	"nodes":[
		{
			"mesh":0,
			"name":"Curve"
		}
	],
	"materials":[
		{
			"doubleSided":true,
			"name":"Material",
			"pbrMetallicRoughness":{
				"baseColorTexture":{
					"index":0
				},
				"metallicFactor":0,
				"roughnessFactor":0.5
			}
		}
	],
	"meshes":[
		{
			"name":"Curve",
			"primitives":[
				{
					"attributes":{
						"POSITION":0,
						"NORMAL":1,
						"TEXCOORD_0":2
					},
					"indices":3,
					"material":0
				}
			]
		}
	],
	"textures":[
		{
			"extensions":{
				"EXT_texture_webp":{
					"source":0
				}
			},
			"sampler":0
		}
	],
	"images":[
		{
			"mimeType":"image/webp",
			"name":"texture-Ithaca-logo-final-1",
			"uri":"texture-Ithaca-logo-final-1.webp"
		}
	],
	"accessors":[
		{
			"bufferView":0,
			"componentType":5126,
			"count":2896,
			"max":[
				0.6462025046348572,
				0.6691405177116394,
				0.10123699903488159
			],
			"min":[
				-0.6462025046348572,
				-0.6691405177116394,
				-0.10123699903488159
			],
			"type":"VEC3"
		},
		{
			"bufferView":1,
			"componentType":5126,
			"count":2896,
			"type":"VEC3"
		},
		{
			"bufferView":2,
			"componentType":5126,
			"count":2896,
			"type":"VEC2"
		},
		{
			"bufferView":3,
			"componentType":5123,
			"count":8160,
			"type":"SCALAR"
		}
	],
	"bufferViews":[
		{
			"buffer":0,
			"byteLength":34752,
			"byteOffset":0,
			"target":34962
		},
		{
			"buffer":0,
			"byteLength":34752,
			"byteOffset":34752,
			"target":34962
		},
		{
			"buffer":0,
			"byteLength":23168,
			"byteOffset":69504,
			"target":34962
		},
		{
			"buffer":0,
			"byteLength":16320,
			"byteOffset":92672,
			"target":34963
		}
	],
	"samplers":[
		{
			"magFilter":9729,
			"minFilter":9987
		}
	],
	"buffers":[
		{
			"byteLength":108992,
			"uri":"3D_logo_Ithaca.bin"
		}
	]
}
